<svg aria-hidden="true" style="position: absolute; width: 0; height: 0; overflow: hidden;" version="1.1" xmlns="http://www.w3.org/2000/svg" xmlns:xlink="http://www.w3.org/1999/xlink">
<defs>
<symbol id="icon-calendar" viewBox="0 0 24 24">
<path d="M7 2v1h-2c-0.828 0-1.58 0.337-2.121 0.879s-0.879 1.293-0.879 2.121v14c0 0.828 0.337 1.58 0.879 2.121s1.293 0.879 2.121 0.879h14c0.828 0 1.58-0.337 2.121-0.879s0.879-1.293 0.879-2.121v-14c0-0.828-0.337-1.58-0.879-2.121s-1.293-0.879-2.121-0.879h-2v-1c0-0.552-0.448-1-1-1s-1 0.448-1 1v1h-6v-1c0-0.552-0.448-1-1-1s-1 0.448-1 1zM20 9h-16v-3c0-0.276 0.111-0.525 0.293-0.707s0.431-0.293 0.707-0.293h2v1c0 0.552 0.448 1 1 1s1-0.448 1-1v-1h6v1c0 0.552 0.448 1 1 1s1-0.448 1-1v-1h2c0.276 0 0.525 0.111 0.707 0.293s0.293 0.431 0.293 0.707zM4 11h16v9c0 0.276-0.111 0.525-0.293 0.707s-0.431 0.293-0.707 0.293h-14c-0.276 0-0.525-0.111-0.707-0.293s-0.293-0.431-0.293-0.707z"></path>
</symbol>
<symbol id="icon-tag" viewBox="0 0 24 24">
<path d="M21.297 14.117c0.583-0.586 0.874-1.352 0.874-2.115 0.001-0.764-0.29-1.532-0.874-2.12l-8.59-8.59c-0.181-0.18-0.431-0.292-0.707-0.292h-10c-0.552 0-1 0.448-1 1v10c0 0.256 0.098 0.512 0.293 0.708l8.592 8.582c0.586 0.585 1.356 0.878 2.122 0.877s1.536-0.294 2.12-0.879zM19.883 12.703l-7.17 7.17c-0.196 0.196-0.45 0.294-0.707 0.294s-0.512-0.097-0.707-0.292l-8.299-8.29v-8.585h8.586l8.297 8.297c0.192 0.193 0.289 0.447 0.289 0.704s-0.097 0.509-0.289 0.702zM7 8c0.552 0 1-0.448 1-1s-0.448-1-1-1-1 0.448-1 1 0.448 1 1 1z"></path>
</symbol>
<symbol id="icon-watch" viewBox="0 0 24 24">
<path d="M11 9v3c0 0.276 0.112 0.526 0.293 0.707l1.5 1.5c0.391 0.391 1.024 0.391 1.414 0s0.391-1.024 0-1.414l-1.207-1.207v-2.586c0-0.552-0.448-1-1-1s-1 0.448-1 1zM15.33 19.276l-0.166 1.813c-0.024 0.266-0.147 0.495-0.333 0.658-0.18 0.159-0.415 0.253-0.67 0.253h-4.331c-0.27 0.001-0.509-0.1-0.69-0.269-0.175-0.164-0.291-0.389-0.315-0.643l-0.165-1.817c1.016 0.468 2.148 0.729 3.34 0.729 1.188 0 2.316-0.259 3.33-0.724zM8.187 7.367c1.037-0.855 2.364-1.367 3.813-1.367 1.657 0 3.156 0.67 4.243 1.757s1.757 2.586 1.757 4.243-0.67 3.156-1.757 4.243c-0.104 0.104-0.211 0.204-0.323 0.3-0.035 0.031-0.071 0.061-0.107 0.090-1.037 0.855-2.364 1.367-3.813 1.367-1.657 0-3.156-0.67-4.243-1.757s-1.757-2.586-1.757-4.243 0.67-3.156 1.757-4.243c0.104-0.104 0.211-0.204 0.323-0.3 0.035-0.031 0.071-0.061 0.107-0.090zM17.491 6.182l-0.315-3.455c-0.070-0.756-0.418-1.43-0.938-1.917-0.539-0.505-1.266-0.813-2.058-0.81h-4.354c-0.755 0.003-1.454 0.286-1.985 0.757-0.551 0.488-0.925 1.182-0.997 1.972l-0.314 3.433c-0.063 0.059-0.126 0.12-0.187 0.181-1.446 1.447-2.343 3.448-2.343 5.657s0.897 4.21 2.343 5.657c0.058 0.058 0.117 0.115 0.176 0.171l0.315 3.445c0.070 0.756 0.418 1.43 0.938 1.917 0.539 0.505 1.266 0.813 2.058 0.81h4.329c0.759 0.001 1.463-0.282 1.997-0.754 0.553-0.489 0.929-1.184 1-1.975l0.314-3.433c0.063-0.059 0.126-0.12 0.187-0.181 1.446-1.447 2.343-3.448 2.343-5.657s-0.897-4.21-2.343-5.657c-0.054-0.054-0.11-0.108-0.165-0.161zM8.67 4.724l0.166-1.813c0.024-0.265 0.147-0.494 0.331-0.657 0.179-0.159 0.412-0.253 0.667-0.254h4.346c0.27-0.001 0.509 0.1 0.69 0.269 0.175 0.164 0.291 0.389 0.315 0.643l0.166 1.821c-1.020-0.47-2.155-0.733-3.351-0.733-1.188 0-2.316 0.259-3.33 0.724z"></path>
</symbol>
<symbol id="icon-github" viewBox="0 0 24 24">
<path d="M12 0.297c-6.63 0-12 5.373-12 12 0 5.303 3.438 9.8 8.205 11.385 0.6 0.113 0.82-0.258 0.82-0.577 0-0.285-0.010-1.040-0.015-2.040-3.338 0.724-4.042-1.61-4.042-1.61-0.546-1.385-1.335-1.755-1.335-1.755-1.087-0.744 0.084-0.729 0.084-0.729 1.205 0.084 1.838 1.236 1.838 1.236 1.070 1.835 2.809 1.305 3.495 0.998 0.108-0.776 0.417-1.305 0.76-1.605-2.665-0.3-5.466-1.332-5.466-5.93 0-1.31 0.465-2.38 1.235-3.22-0.135-0.303-0.54-1.523 0.105-3.176 0 0 1.005-0.322 3.3 1.23 0.96-0.267 1.98-0.399 3-0.405 1.020 0.006 2.040 0.138 3 0.405 2.28-1.552 3.285-1.23 3.285-1.23 0.645 1.653 0.24 2.873 0.12 3.176 0.765 0.84 1.23 1.91 1.23 3.22 0 4.61-2.805 5.625-5.475 5.92 0.42 0.36 0.81 1.096 0.81 2.22 0 1.606-0.015 2.896-0.015 3.286 0 0.315 0.21 0.69 0.825 0.57 4.801-1.574 8.236-6.074 8.236-11.369 0-6.627-5.373-12-12-12z"></path>
</symbol>
<symbol id="icon-keybase" viewBox="0 0 24 24">
<path fill="#33a0ff" style="fill: var(--color1, #33a0ff)" d="M10.446 21.371c0 0.528-0.428 0.953-0.954 0.953-0.525 0-0.954-0.425-0.954-0.953 0-0.526 0.428-0.954 0.953-0.954 0.524 0 0.951 0.431 0.951 0.955zM16.364 21.371c0 0.528-0.428 0.953-0.955 0.953-0.526 0-0.952-0.425-0.952-0.953 0-0.526 0.423-0.954 0.949-0.954s0.954 0.431 0.954 0.955zM20.904 12.213l-0.156-0.204c-0.046-0.060-0.096-0.116-0.143-0.175-0.045-0.061-0.094-0.113-0.141-0.169-0.104-0.12-0.209-0.239-0.319-0.359l-0.076-0.080-0.091-0.099-0.135-0.131c-0.015-0.018-0.032-0.034-0.050-0.053-1.16-1.139-2.505-1.986-3.955-2.504l-0.23-0.078c0.012-0.027 0.024-0.055 0.035-0.083 0.41-1.064 0.367-2.223-0.12-3.255-0.491-1.035-1.356-1.8-2.438-2.16-0.656-0.216-1.23-0.319-1.711-0.305-0.033-0.105-0.1-0.577 0.496-1.848l-1.207-0.71-0.287 0.399c-0.33 0.455-0.648 0.895-0.945 1.328-0.328-0.345-0.766-0.552-1.245-0.58l-1.408-0.086c-0.033-0.003-0.070-0.003-0.104-0.003-0.99 0-1.81 0.771-1.87 1.755l-0.088 1.402v0.003c-0.061 1.029 0.727 1.915 1.755 1.979l1.002 0.061c-0.065 0.84 0.073 1.62 0.405 2.306-1.346 0.562-2.586 1.401-3.66 2.484-3.305 3.343-3.305 7.003-3.305 9.946v1.775l1.305-1.387c0.266 0.93 0.652 1.807 1.145 2.615h1.697c-0.833-1.114-1.419-2.426-1.68-3.848l1.913-2.030-0.985 3.091 1.74-1.268c3.075-2.234 6.744-2.75 10.91-1.529 1.805 0.532 3.56 0.039 4.473-1.257l0.104-0.165c0.091 0.498 0.141 0.998 0.141 1.496 0 1.563-0.255 3.687-1.38 5.512h1.611c0.776-1.563 1.181-3.432 1.181-5.512-0.001-2.199-0.786-4.421-2.184-6.274zM8.894 6.191c0.123-1.002 0.578-1.949 1.23-2.97 0.025 0.050 0.054 0.097 0.084 0.144 0.264 0.398 0.713 0.625 1.199 0.605 0.217-0.008 0.605 0.025 1.233 0.232 0.714 0.236 1.286 0.744 1.608 1.425s0.349 1.442 0.079 2.149c-0.173 0.445-0.454 0.82-0.806 1.109l-0.408-0.502-0.002-0.003c-0.279-0.341-0.694-0.535-1.134-0.535-0.335 0-0.664 0.117-0.925 0.33-0.334 0.27-0.514 0.66-0.534 1.058-1.2-0.541-1.8-1.643-1.628-3.041zM13.198 11.301l-0.519 0.425c-0.046 0.036-0.095 0.053-0.146 0.053-0.066 0-0.133-0.030-0.177-0.085l-0.111-0.135c-0.083-0.1-0.067-0.25 0.034-0.334l0.51-0.42-1.055-1.299c-0.109-0.133-0.091-0.33 0.044-0.436 0.058-0.048 0.126-0.072 0.194-0.072 0.091 0 0.181 0.038 0.24 0.113l2.963 3.645c0.109 0.135 0.090 0.33-0.042 0.436-0.039 0.029-0.082 0.053-0.126 0.063-0.023 0.006-0.045 0.009-0.070 0.009-0.090 0-0.178-0.040-0.24-0.113l-0.295-0.365-1.045 0.854c-0.046 0.037-0.1 0.055-0.154 0.055-0.068 0-0.139-0.030-0.186-0.090l-0.477-0.579c-0.082-0.102-0.068-0.252 0.035-0.336l1.051-0.857-0.426-0.533zM7.753 4.866l-1.196-0.075c-0.255-0.015-0.45-0.235-0.435-0.488l0.090-1.401c0.014-0.245 0.216-0.436 0.461-0.436h0.024l1.401 0.091c0.123 0.006 0.236 0.060 0.317 0.152 0.083 0.094 0.123 0.21 0.116 0.336l-0.007 0.101c-0.32 0.567-0.585 1.134-0.773 1.72zM20.277 16.347c-0.565 0.805-1.687 1.081-2.924 0.718-3.886-1.141-7.396-0.903-10.468 0.701l1.636-5.123-5.291 5.609c0.099-3.762 2.453-6.966 5.758-8.311 0.471 0.373 1.034 0.66 1.673 0.841 0.16 0.044 0.322 0.074 0.48 0.102-0.183 0.458-0.119 0.997 0.21 1.407l0.075 0.090c-0.172 0.45-0.105 0.975 0.221 1.374l0.475 0.582c0.266 0.325 0.659 0.513 1.079 0.513 0.321 0 0.635-0.111 0.886-0.314l0.285-0.232c0.174 0.074 0.367 0.113 0.566 0.113 0.113 0 0.222-0.010 0.33-0.035 0.218-0.050 0.424-0.15 0.598-0.291 0.623-0.51 0.72-1.435 0.209-2.060l-1.67-2.056c0.145-0.117 0.281-0.244 0.408-0.381 0.135 0.037 0.271 0.078 0.4 0.12 0.266 0.097 0.533 0.198 0.795 0.315 1.005 0.445 1.954 1.1 2.771 1.897 0.029 0.030 0.059 0.055 0.085 0.083l0.17 0.175c0.038 0.039 0.076 0.079 0.111 0.12 0.079 0.085 0.16 0.175 0.239 0.267l0.126 0.15c0.045 0.053 0.086 0.104 0.13 0.16l0.114 0.15c0.040 0.051 0.079 0.102 0.117 0.154 0.838 1.149 0.987 2.329 0.404 3.157zM7.719 4.115l-0.835-0.051 0.053-0.835 0.834 0.051z"></path>
</symbol>
<symbol id="icon-linkedin" viewBox="0 0 24 24">
<path fill="#0077b5" style="fill: var(--color2, #0077b5)" d="M20.447 20.452h-3.554v-5.569c0-1.328-0.027-3.037-1.852-3.037-1.853 0-2.136 1.445-2.136 2.939v5.667h-3.554v-11.452h3.414v1.561h0.046c0.477-0.9 1.637-1.85 3.37-1.85 3.601 0 4.267 2.37 4.267 5.455zM5.337 7.433c-1.144 0-2.063-0.926-2.063-2.065 0-1.138 0.92-2.063 2.063-2.063 1.14 0 2.064 0.925 2.064 2.063 0 1.139-0.925 2.065-2.064 2.065zM7.119 20.452h-3.564v-11.452h3.564zM22.225 0h-20.454c-0.979 0-1.771 0.774-1.771 1.729v20.542c0 0.956 0.792 1.729 1.771 1.729h20.451c0.978 0 1.778-0.773 1.778-1.729v-20.542c0-0.955-0.8-1.729-1.778-1.729z"></path>
</symbol>
<symbol id="icon-rss" viewBox="0 0 24 24">
<path fill="#ffa500" style="fill: var(--color3, #ffa500)" d="M19.199 24c0-10.533-8.666-19.2-19.199-19.2v-4.8c13.165 0 24 10.835 24 24zM3.291 17.415c1.814 0 3.293 1.479 3.293 3.295 0 1.813-1.485 3.29-3.301 3.29-1.813 0-3.283-1.474-3.283-3.29s1.475-3.294 3.291-3.295zM15.909 24h-4.665c0-6.169-5.075-11.245-11.244-11.245v-4.665c8.727 0 15.909 7.184 15.909 15.91z"></path>
</symbol>
<symbol id="icon-stackoverflow" viewBox="0 0 24 24">
<path fill="#fe7a16" style="fill: var(--color4, #fe7a16)" d="M18.986 21.865v-6.404h2.134v8.539h-19.276v-8.539h2.13v6.404zM6.111 19.731h10.739v-2.137h-10.739zM6.37 14.879l10.48 2.189 0.451-2.070-10.478-2.187zM7.729 9.823l9.705 4.53 0.903-1.95-9.706-4.53-0.902 1.936zM10.444 5.038l8.217 6.855 1.359-1.62-8.216-6.853-1.35 1.617zM15.751 0l-1.746 1.294 6.405 8.604 1.746-1.294-6.407-8.604z"></path>
</symbol>
<symbol id="icon-strava" viewBox="0 0 24 24">
<path fill="#fc4c02" style="fill: var(--color5, #fc4c02)" d="M15.387 17.944l-2.089-4.116h-3.065l5.154 10.172 5.15-10.172h-3.066zM10.463 8.229l2.836 5.598h4.172l-7.008-13.827-7 13.828h4.169z"></path>
</symbol>
<symbol id="icon-twitter" viewBox="0 0 24 24">
<path fill="#1da1f2" style="fill: var(--color6, #1da1f2)" d="M23.954 4.569c-0.885 0.389-1.83 0.654-2.825 0.775 1.014-0.611 1.794-1.574 2.163-2.723-0.951 0.555-2.005 0.959-3.127 1.184-0.896-0.959-2.173-1.559-3.591-1.559-2.717 0-4.92 2.203-4.92 4.917 0 0.39 0.045 0.765 0.127 1.124-4.090-0.193-7.715-2.157-10.141-5.126-0.427 0.722-0.666 1.561-0.666 2.475 0 1.71 0.87 3.213 2.188 4.096-0.807-0.026-1.566-0.248-2.228-0.616v0.061c0 2.385 1.693 4.374 3.946 4.827-0.413 0.111-0.849 0.171-1.296 0.171-0.314 0-0.615-0.030-0.916-0.086 0.631 1.953 2.445 3.377 4.604 3.417-1.68 1.319-3.809 2.105-6.102 2.105-0.39 0-0.779-0.023-1.17-0.067 2.189 1.394 4.768 2.209 7.557 2.209 9.054 0 13.999-7.496 13.999-13.986 0-0.209 0-0.42-0.015-0.63 0.961-0.689 1.8-1.56 2.46-2.548z"></path>
</symbol>
</defs>
</svg>
